<?xml version="1.0" encoding="utf-8"?>
<!-- Generator: Adobe Illustrator 14.0.0, SVG Export Plug-In . SVG Version: 6.00 Build 43363)  -->
<!DOCTYPE svg PUBLIC "-//W3C//DTD SVG 1.1//EN" "http://www.w3.org/Graphics/SVG/1.1/DTD/svg11.dtd">
<svg version="1.1" id="Layer_1" xmlns="http://www.w3.org/2000/svg" xmlns:xlink="http://www.w3.org/1999/xlink" x="0px" y="0px"
	 width="857.143px" height="1000px" viewBox="0 0 857.143 1000" enable-background="new 0 0 857.143 1000" xml:space="preserve">
    <path fill="#94d4ed" d="M857.088,500.032c0,77.748-19.158,149.451-57.474,215.108c-38.316,65.658-90.304,117.646-155.961,155.961
	c-65.658,38.316-137.361,57.475-215.109,57.475s-149.451-19.158-215.109-57.475C147.777,832.786,95.79,780.799,57.474,715.141
	C19.158,649.483,0,577.78,0,500.032s19.158-149.451,57.474-215.109c38.316-65.658,90.303-117.645,155.961-155.961
	c65.658-38.316,137.361-57.474,215.109-57.474s149.451,19.158,215.109,57.474c65.657,38.316,117.645,90.303,155.961,155.961
	C837.93,350.581,857.088,422.284,857.088,500.032L857.088,500.032z" />
</svg>
