<?xml version="1.0" encoding="utf-8"?>
<!-- Generator: Adobe Illustrator 15.0.0, SVG Export Plug-In . SVG Version: 6.00 Build 0)  -->
<!DOCTYPE svg PUBLIC "-//W3C//DTD SVG 1.1//EN" "http://www.w3.org/Graphics/SVG/1.1/DTD/svg11.dtd">
<svg version="1.1" id="Layer_1" xmlns="http://www.w3.org/2000/svg" xmlns:xlink="http://www.w3.org/1999/xlink" x="0px" y="0px"
	 width="283.46px" height="114.23px" viewBox="0 0 283.46 114.23" enable-background="new 0 0 283.46 114.23" xml:space="preserve">
<path fill="#51C0AC" d="M280.188,45.11L265.944,19.98c-2.861-4.159-7.951-0.839-7.951-0.839l-34.345,20.312
	c-2.16,1.077-3.28-1.018-3.28-1.018l36.367-22.857l-2.51-3.978c-2.023-3.603-6.699,0-6.699,0s-26.804,22.438-28.688,23.9
	c-1.881,1.467-0.626,3.95-0.626,3.95l17.586,31.2c3.563,5.476,8.38,1.676,8.38,1.676l34.13-19.477
	C282.492,50.134,280.188,45.11,280.188,45.11z M255.361,51.021c-0.394,1.309-1.858,2.636-3.912,3.002
	c-0.038,1.49-0.029,2.912-0.046,4.26c-0.007,0.45-0.15,0.521-0.455,0.353c-0.48-0.259-0.994-0.949-1.148-2.751
	c-0.026-0.521-0.09-1.114-0.134-1.764c-1.111-0.088-2.368-0.462-3.704-1.206c-0.357-0.179-0.354-0.454-0.062-0.684
	c0.542-0.44,1.574-0.716,2.613-0.501c1.379,0.273,2.649,0.871,4.219,0.246c0.6-0.246,1.054-0.683,1.203-1.113
	c0.208-0.592-0.182-0.94-0.683-1.051c-1.65-0.461-5.976,0.105-7.068-2.263c-1.448-3.095,0.229-6.939,2.131-9.104
	c0.493-0.549,1.166-0.918,1.799-1.091c0.113-1.707,0.249-3.288,0.392-4.74c0.046-0.552,0.247-0.695,0.657-0.4
	c0.588,0.387,0.981,1.58,1.008,3.488c-0.008,0.538,0.004,1.112-0.041,1.759c0.718,0.192,1.321,0.524,1.818,0.999
	c1.345,1.314,0.808,3.807,0.953,6.056c0.014,0.488-0.028,0.678-0.691,0.601c-1.13-0.124-1.888-0.871-2.024-2.728
	c-0.106-1.333,0.232-3.414-0.607-3.59c-0.952-0.212-4.204,4.435-2.97,7.368c0.605,1.451,3.759,1.135,5.479,1.465
	C255.55,47.897,255.867,49.394,255.361,51.021z"/>
<path fill="#51C0AC" d="M16.027,71.915c-1.154,0-2.121,0.263-2.901,0.789c-0.78,0.524-1.417,1.204-1.908,2.035
	c-0.493,0.834-0.84,1.749-1.044,2.75c-0.203,1-0.305,1.993-0.305,2.978c0,0.951,0.103,1.917,0.305,2.901
	c0.204,0.986,0.535,1.873,0.992,2.673c0.458,0.796,1.078,1.452,1.859,1.957c0.78,0.512,1.73,0.768,2.851,0.768
	c1.731,0,3.062-0.484,3.996-1.453c0.933-0.967,1.519-2.264,1.755-3.893h6.975c-0.476,3.494-1.833,6.158-4.072,7.991
	c-2.24,1.833-5.108,2.749-8.603,2.749c-1.968,0-3.777-0.332-5.421-0.994c-1.646-0.66-3.045-1.59-4.2-2.774
	c-1.153-1.187-2.053-2.604-2.697-4.247c-0.646-1.651-0.968-3.455-0.968-5.422c0-2.037,0.297-3.931,0.891-5.678
	c0.593-1.747,1.468-3.258,2.622-4.53c1.153-1.272,2.562-2.269,4.225-2.98c1.661-0.713,3.563-1.068,5.701-1.068
	c1.56,0,3.062,0.202,4.505,0.606c1.443,0.407,2.731,1.027,3.869,1.861c1.137,0.834,2.062,1.869,2.774,3.104
	c0.712,1.237,1.12,2.706,1.222,4.403h-7.076C20.898,73.427,19.115,71.915,16.027,71.915z"/>
<path fill="#51C0AC" d="M32.622,71.051c0.747-1.12,1.696-2.019,2.851-2.696c1.154-0.682,2.45-1.168,3.894-1.453
	c1.443-0.287,2.894-0.432,4.353-0.432c1.324,0,2.664,0.095,4.021,0.279c1.358,0.187,2.597,0.554,3.716,1.093
	c1.12,0.545,2.036,1.304,2.749,2.268c0.713,0.966,1.069,2.248,1.069,3.846v13.688c0,1.19,0.068,2.327,0.204,3.416
	c0.136,1.085,0.374,1.9,0.712,2.441h-7.33c-0.136-0.409-0.246-0.82-0.331-1.245c-0.084-0.424-0.145-0.859-0.178-1.301
	c-1.153,1.186-2.511,2.019-4.072,2.492c-1.561,0.477-3.155,0.718-4.784,0.718c-1.256,0-2.426-0.158-3.513-0.459
	c-1.085-0.307-2.036-0.782-2.851-1.427c-0.814-0.643-1.45-1.457-1.908-2.44c-0.458-0.984-0.688-2.158-0.688-3.512
	c0-1.492,0.263-2.722,0.79-3.694c0.525-0.963,1.204-1.735,2.035-2.312c0.832-0.577,1.782-1.012,2.851-1.3
	c1.069-0.288,2.147-0.52,3.232-0.686c1.086-0.173,2.155-0.309,3.207-0.407c1.052-0.104,1.985-0.252,2.799-0.461
	c0.814-0.2,1.46-0.498,1.935-0.887c0.475-0.39,0.696-0.956,0.662-1.706c0-0.779-0.127-1.399-0.382-1.861
	c-0.254-0.458-0.594-0.812-1.018-1.067c-0.424-0.251-0.917-0.424-1.477-0.511c-0.559-0.084-1.161-0.125-1.807-0.125
	c-1.425,0-2.545,0.308-3.36,0.914c-0.814,0.611-1.289,1.631-1.424,3.056h-7.229C31.451,73.581,31.875,72.171,32.622,71.051z
	 M46.899,81.256c-0.458,0.153-0.951,0.279-1.476,0.383c-0.526,0.105-1.078,0.186-1.655,0.254c-0.577,0.067-1.154,0.154-1.73,0.254
	c-0.543,0.103-1.078,0.238-1.604,0.406c-0.525,0.173-0.983,0.396-1.373,0.689c-0.391,0.289-0.704,0.653-0.941,1.095
	c-0.238,0.44-0.357,1-0.357,1.681c0,0.642,0.119,1.188,0.357,1.625c0.238,0.443,0.56,0.791,0.966,1.044
	c0.408,0.253,0.882,0.435,1.426,0.532c0.542,0.103,1.103,0.153,1.679,0.153c1.425,0,2.529-0.241,3.309-0.713
	c0.78-0.476,1.357-1.044,1.731-1.704c0.373-0.667,0.602-1.333,0.687-2.016c0.085-0.675,0.127-1.222,0.127-1.627v-2.7
	C47.739,80.892,47.357,81.102,46.899,81.256z"/>
<path fill="#51C0AC" d="M65.937,86.958c0.322,0.56,0.739,1.018,1.247,1.375c0.509,0.354,1.094,0.619,1.756,0.789
	c0.662,0.175,1.349,0.255,2.061,0.255c0.51,0,1.044-0.061,1.604-0.177c0.559-0.117,1.068-0.308,1.527-0.562
	c0.458-0.251,0.84-0.595,1.145-1.019c0.306-0.425,0.458-0.96,0.458-1.602c0-1.088-0.721-1.903-2.164-2.442
	c-1.443-0.538-3.452-1.088-6.032-1.629c-1.051-0.242-2.079-0.52-3.08-0.84c-1.001-0.319-1.892-0.743-2.671-1.271
	c-0.781-0.53-1.409-1.185-1.884-1.985c-0.475-0.798-0.712-1.772-0.712-2.932c0-1.696,0.331-3.082,0.992-4.173
	c0.662-1.087,1.537-1.943,2.622-2.571c1.086-0.626,2.309-1.068,3.665-1.321c1.357-0.252,2.75-0.383,4.175-0.383
	c1.425,0,2.808,0.137,4.147,0.407c1.341,0.27,2.537,0.729,3.59,1.374c1.052,0.646,1.924,1.501,2.62,2.571
	c0.697,1.072,1.112,2.422,1.248,4.05h-6.872c-0.102-1.393-0.628-2.333-1.579-2.826c-0.95-0.491-2.069-0.74-3.359-0.74
	c-0.406,0-0.848,0.027-1.323,0.076c-0.476,0.05-0.908,0.164-1.299,0.33c-0.39,0.171-0.72,0.416-0.992,0.738
	c-0.272,0.322-0.407,0.754-0.407,1.302c0,0.645,0.237,1.166,0.713,1.581c0.475,0.403,1.094,0.739,1.857,0.994
	c0.764,0.249,1.638,0.48,2.621,0.682c0.984,0.204,1.986,0.425,3.004,0.667c1.052,0.236,2.079,0.527,3.08,0.864
	c1,0.339,1.891,0.789,2.672,1.349c0.78,0.56,1.408,1.256,1.883,2.088c0.476,0.827,0.713,1.857,0.713,3.076
	c0,1.732-0.35,3.182-1.044,4.348c-0.696,1.171-1.603,2.113-2.723,2.826c-1.12,0.714-2.401,1.213-3.843,1.502
	c-1.442,0.287-2.91,0.436-4.402,0.436c-1.527,0-3.021-0.158-4.48-0.459c-1.458-0.306-2.757-0.814-3.894-1.528
	c-1.136-0.712-2.07-1.653-2.799-2.822c-0.731-1.171-1.13-2.638-1.196-4.405h6.872C65.454,85.729,65.613,86.398,65.937,86.958z"/>
<path fill="#51C0AC" d="M93.397,57.156v13.691h0.153c0.916-1.526,2.086-2.64,3.512-3.334c1.426-0.696,2.817-1.043,4.175-1.043
	c1.934,0,3.521,0.263,4.759,0.789c1.237,0.524,2.215,1.255,2.927,2.188c0.712,0.934,1.213,2.07,1.501,3.409
	c0.288,1.344,0.433,2.828,0.433,4.455V93.5h-7.228V78.635c0-2.172-0.339-3.793-1.019-4.86c-0.678-1.07-1.883-1.604-3.613-1.604
	c-1.969,0-3.394,0.589-4.277,1.756c-0.883,1.17-1.323,3.099-1.323,5.775V93.5h-7.229V57.156H93.397L93.397,57.156z"/>
<path fill="#51C0AC" d="M113.401,85.253v-6.618l15.475-20.767h6.464v21.428h4.734v5.961h-4.734V93.5h-6.872v-8.243L113.401,85.253
	L113.401,85.253z M128.316,66.924l-9.213,12.372h9.366V66.924H128.316z"/>
<path fill="#FFFFFF" d="M143.587,71.051c0.744-1.12,1.696-2.019,2.85-2.696c1.156-0.682,2.449-1.168,3.895-1.453
	c1.445-0.286,2.893-0.432,4.35-0.432c1.322,0,2.665,0.095,4.023,0.279c1.357,0.187,2.595,0.554,3.713,1.093
	c1.12,0.545,2.035,1.304,2.748,2.268c0.711,0.966,1.069,2.248,1.069,3.846v13.688c0,1.19,0.066,2.327,0.202,3.416
	c0.136,1.085,0.377,1.9,0.713,2.441h-7.329c-0.136-0.409-0.246-0.82-0.326-1.245c-0.088-0.424-0.147-0.859-0.177-1.301
	c-1.155,1.186-2.511,2.019-4.071,2.492c-1.561,0.477-3.152,0.718-4.782,0.718c-1.255,0-2.426-0.158-3.512-0.459
	c-1.085-0.306-2.034-0.782-2.851-1.427c-0.813-0.643-1.45-1.457-1.911-2.44c-0.458-0.984-0.687-2.158-0.687-3.512
	c0-1.492,0.263-2.722,0.789-3.694c0.529-0.963,1.203-1.735,2.036-2.312c0.832-0.577,1.782-1.012,2.852-1.3s2.15-0.52,3.233-0.686
	c1.086-0.173,2.157-0.309,3.208-0.407c1.05-0.104,1.988-0.252,2.797-0.461c0.812-0.2,1.458-0.498,1.936-0.887
	c0.474-0.39,0.696-0.956,0.665-1.706c0-0.779-0.125-1.399-0.384-1.861c-0.252-0.458-0.6-0.812-1.023-1.067
	c-0.426-0.251-0.912-0.424-1.472-0.511c-0.561-0.084-1.167-0.125-1.803-0.125c-1.429,0-2.546,0.308-3.36,0.914
	c-0.812,0.611-1.29,1.631-1.425,3.056h-7.229C142.416,73.581,142.839,72.171,143.587,71.051z M157.864,81.256
	c-0.459,0.153-0.949,0.279-1.474,0.383c-0.529,0.105-1.079,0.186-1.656,0.254c-0.576,0.067-1.155,0.154-1.731,0.254
	c-0.541,0.103-1.082,0.238-1.603,0.406c-0.528,0.173-0.983,0.396-1.376,0.689c-0.39,0.289-0.706,0.653-0.943,1.095
	c-0.24,0.44-0.355,1-0.355,1.681c0,0.642,0.115,1.188,0.355,1.625c0.24,0.443,0.561,0.789,0.966,1.044
	c0.404,0.253,0.885,0.435,1.427,0.532c0.538,0.105,1.099,0.153,1.679,0.153c1.426,0,2.524-0.241,3.308-0.713
	c0.777-0.476,1.355-1.044,1.73-1.704c0.377-0.667,0.603-1.333,0.688-2.016c0.085-0.675,0.126-1.222,0.126-1.627v-2.7
	C158.707,80.892,158.321,81.102,157.864,81.256z"/>
<path fill="#FFFFFF" d="M189.497,90.139c-0.849,1.426-1.956,2.453-3.335,3.078c-1.373,0.63-2.929,0.943-4.655,0.943
	c-1.968,0-3.698-0.383-5.195-1.145c-1.495-0.764-2.723-1.804-3.689-3.105c-0.965-1.309-1.699-2.806-2.189-4.504
	c-0.492-1.698-0.74-3.462-0.74-5.295c0-1.765,0.248-3.469,0.74-5.117c0.49-1.644,1.225-3.095,2.189-4.352
	c0.964-1.252,2.179-2.265,3.642-3.028c1.457-0.762,3.153-1.145,5.09-1.145c1.561,0,3.045,0.331,4.454,0.991
	c1.409,0.664,2.518,1.638,3.335,2.928h0.104V57.156h7.229V93.5H189.6v-3.359L189.497,90.139L189.497,90.139z M189.194,77.134
	c-0.201-1.001-0.55-1.884-1.044-2.647c-0.49-0.765-1.126-1.381-1.909-1.861c-0.778-0.471-1.763-0.713-2.95-0.713
	c-1.185,0-2.188,0.242-3.004,0.713c-0.814,0.476-1.469,1.104-1.958,1.884c-0.495,0.78-0.85,1.669-1.071,2.669
	c-0.219,1.004-0.33,2.044-0.33,3.134c0,1.022,0.118,2.034,0.358,3.053c0.24,1.021,0.617,1.934,1.147,2.723
	c0.526,0.8,1.185,1.446,1.986,1.937c0.797,0.491,1.751,0.741,2.871,0.741c1.188,0,2.18-0.241,2.979-0.713
	c0.8-0.475,1.437-1.11,1.908-1.908c0.473-0.802,0.814-1.71,1.021-2.724c0.206-1.019,0.307-2.069,0.307-3.156
	C189.499,79.178,189.4,78.134,189.194,77.134z"/>
<path fill="#FFFFFF" d="M206.983,86.958c0.318,0.56,0.739,1.018,1.246,1.375c0.509,0.354,1.096,0.619,1.754,0.789
	c0.663,0.175,1.349,0.255,2.063,0.255c0.51,0,1.041-0.061,1.603-0.177c0.557-0.117,1.069-0.308,1.525-0.562
	c0.454-0.251,0.841-0.595,1.146-1.019c0.307-0.425,0.46-0.96,0.46-1.602c0-1.088-0.724-1.903-2.161-2.442
	c-1.445-0.538-3.452-1.088-6.035-1.629c-1.049-0.242-2.08-0.52-3.075-0.84c-1.001-0.319-1.893-0.743-2.674-1.271
	c-0.779-0.53-1.408-1.185-1.878-1.985c-0.473-0.798-0.714-1.772-0.714-2.932c0-1.696,0.328-3.082,0.996-4.173
	c0.659-1.087,1.529-1.943,2.621-2.571c1.084-0.626,2.302-1.068,3.66-1.321c1.361-0.252,2.747-0.383,4.175-0.383
	s2.805,0.137,4.146,0.407c1.34,0.27,2.535,0.729,3.589,1.374c1.049,0.646,1.926,1.501,2.622,2.571
	c0.695,1.072,1.108,2.422,1.244,4.05h-6.875c-0.102-1.393-0.627-2.333-1.579-2.826c-0.947-0.491-2.068-0.74-3.358-0.74
	c-0.405,0-0.852,0.027-1.324,0.076c-0.475,0.05-0.909,0.164-1.298,0.33c-0.39,0.171-0.726,0.416-0.993,0.738
	c-0.272,0.322-0.406,0.754-0.406,1.302c0,0.645,0.238,1.166,0.712,1.581c0.473,0.405,1.096,0.739,1.859,0.994
	c0.762,0.249,1.639,0.48,2.621,0.682c0.985,0.204,1.987,0.425,3.004,0.667c1.051,0.236,2.082,0.527,3.077,0.864
	c1.003,0.339,1.893,0.789,2.676,1.349c0.777,0.56,1.406,1.256,1.88,2.088c0.471,0.827,0.714,1.857,0.714,3.076
	c0,1.732-0.349,3.182-1.044,4.348c-0.695,1.171-1.602,2.113-2.724,2.826c-1.115,0.714-2.398,1.213-3.841,1.502
	c-1.446,0.287-2.91,0.436-4.404,0.436c-1.528,0-3.019-0.158-4.486-0.459c-1.452-0.307-2.757-0.814-3.893-1.528
	c-1.138-0.712-2.069-1.653-2.793-2.822c-0.737-1.171-1.13-2.638-1.196-4.405h6.87C206.5,85.729,206.662,86.398,206.983,86.958z"/>
</svg>
