<?xml version="1.0" encoding="utf-8"?>
<!-- Generator: Adobe Illustrator 14.0.0, SVG Export Plug-In  -->
<!DOCTYPE svg PUBLIC "-//W3C//DTD SVG 1.1//EN" "http://www.w3.org/Graphics/SVG/1.1/DTD/svg11.dtd" [
	<!ENTITY ns_flows "http://ns.adobe.com/Flows/1.0/">
]>
<svg version="1.1"
	 xmlns="http://www.w3.org/2000/svg" xmlns:xlink="http://www.w3.org/1999/xlink" xmlns:a="http://ns.adobe.com/AdobeSVGViewerExtensions/3.0/"
	 x="0px" y="0px" width="37px" height="37px" viewBox="0 0.018 37 37" enable-background="new 0 0.018 37 37" xml:space="preserve">
<defs>
</defs>
<path fill="#FFFFFF" d="M36.629,20.613L28.271,5.854c-1.682-2.44-4.677-0.489-4.677-0.489L3.431,17.29
	c-1.265,0.632-1.927-0.597-1.927-0.597L22.861,3.277l-1.474-2.338c-1.188-2.112-3.938,0-3.938,0S1.712,14.11,0.609,14.969
	c-1.104,0.865-0.37,2.321-0.37,2.321l10.327,18.32c2.094,3.216,4.921,0.984,4.921,0.984l20.038-11.436
	C37.983,23.56,36.629,20.613,36.629,20.613z M22.049,24.084c-0.227,0.77-1.086,1.546-2.291,1.76
	c-0.024,0.877-0.018,1.713-0.03,2.506c-0.006,0.263-0.089,0.305-0.269,0.203c-0.28-0.149-0.584-0.555-0.674-1.617
	c-0.018-0.304-0.054-0.649-0.078-1.031c-0.65-0.054-1.39-0.274-2.178-0.71c-0.208-0.107-0.208-0.269-0.036-0.4
	c0.322-0.262,0.925-0.423,1.533-0.292c0.812,0.155,1.557,0.507,2.482,0.138c0.352-0.138,0.62-0.4,0.704-0.65
	c0.125-0.347-0.102-0.555-0.4-0.621c-0.966-0.269-3.507,0.066-4.152-1.33c-0.847-1.813,0.137-4.068,1.253-5.345
	c0.292-0.322,0.686-0.537,1.056-0.638c0.066-1.002,0.149-1.927,0.233-2.78c0.024-0.328,0.143-0.412,0.382-0.239
	c0.346,0.227,0.578,0.925,0.597,2.046c-0.006,0.316,0,0.656-0.03,1.038c0.424,0.107,0.781,0.305,1.068,0.585
	c0.793,0.77,0.477,2.231,0.561,3.556c0.012,0.286-0.018,0.399-0.399,0.352c-0.669-0.071-1.116-0.513-1.193-1.599
	c-0.06-0.788,0.137-2.01-0.352-2.112c-0.561-0.125-2.47,2.607-1.748,4.325c0.358,0.854,2.208,0.668,3.221,0.859
	C22.168,22.248,22.353,23.13,22.049,24.084z"/>
</svg>
